# xmcd
#
# Track frame offsets:
# 150
# 12021
# 28439
# 38141
# 50280
# 63506
# 81350
# 98890
# 110964
# 124457
# 141521
# 152092
#
# Disc length: 2172 seconds
#
#
# Revision: 2
# Processed by: cddbd v1.5.2PL0 Copyright (c) Steve Scherf et al.
# Submitted via: FreeRIP 2.942 
#
DISCID=ae087a0c
DTITLE=Various Artist - Corridos y Rancheras de la Revolucion
DYEAR=1900
DGENRE=Mexicano
TTITLE0=Mariachi Yucatan - Gustavo Pimentel
TTITLE1=Ruben Vargas y el Mariachi,Aguilas de Oro - El adios del soldado
TTITLE2=Ramon Acevedo y su Mariachi - La Valentina
TTITLE3=Lucha Reyes y Mariachi Azteca - Camino de Contresras
TTITLE4=Mariachi Yucatan - Gustavo Pimentel
TTITLE5=Los Gavilanes norteños - El siete Leguas
TTITLE6=Lucha Reyes y Mariachi Azteca - La Carcel de Cananea
TTITLE7=Olga Cifuentes y Los Bravos - La Tequilera
TTITLE8=Mariachi Yucatan - Gustavo Pimentel
TTITLE9=Lucha Reyes y Marichi Azteca - La persecucion de Villa
TTITLE10=Mariachi Yucatan - Gustavo Pimentel
TTITLE11=Olga Cifuentes y los Bravos - La Zenaida
EXTD=
EXTT0=Popular
EXTT1=Popular
EXTT2=Popular
EXTT3=Serevino Briseño
EXTT4=Popular
EXTT5=Graciela Olmos
EXTT6=Popular
EXTT7=Popular
EXTT8=Quitino Mendoza
EXTT9=S.M. Lozano
EXTT10=W.A. Timm-Cortazar
EXTT11=Popular
PLAYORDER=
